<svg width="32" height="32" viewBox="0 0 32 32" fill="none" xmlns="http://www.w3.org/2000/svg">
<g id="Icon" clip-path="url(#clip0_338_12664)">
<path id="Vector" d="M27.6165 10.5094L18.7282 3.60241C17.9482 2.99615 16.9881 2.66699 15.9998 2.66699C15.0116 2.66699 14.0515 2.99615 13.2715 3.60241L4.3815 10.5094C3.84724 10.9245 3.41499 11.456 3.11776 12.0635C2.82053 12.671 2.66618 13.3383 2.6665 14.0145V26.0034C2.6665 26.8866 3.01769 27.7337 3.64281 28.3582C4.26794 28.9828 5.11578 29.3337 5.99984 29.3337H25.9998C26.8839 29.3337 27.7317 28.9828 28.3569 28.3582C28.982 27.7337 29.3332 26.8866 29.3332 26.0034V14.0145C29.3332 12.6441 28.6998 11.3503 27.6165 10.5094Z" fill="white" stroke="white" stroke-width="2" stroke-linecap="round" stroke-linejoin="round"/>
</g>
<defs>
<clipPath id="clip0_338_12664">
<rect width="32" height="32" fill="white"/>
</clipPath>
</defs>
</svg>
